<svg width="142" height="48" viewBox="0 0 142 48" fill="none" xmlns="http://www.w3.org/2000/svg">
<path d="M0.9375 37V1.32812L22.7344 22.3047C23.3281 22.8984 23.9297 23.5312 24.5391 24.2031C25.1484 24.875 25.7891 25.6328 26.4609 26.4766V2.6875H31.6172V38.3359L9.375 16.9844C8.78125 16.4062 8.20312 15.7969 7.64062 15.1562C7.09375 14.5156 6.57031 13.8438 6.07031 13.1406V37H0.9375ZM60.4922 26.6406H42.7266C42.8516 28.7188 43.4688 30.3438 44.5781 31.5156C45.6875 32.6719 47.1641 33.25 49.0078 33.25C50.6484 33.25 52.0156 32.9062 53.1094 32.2188C54.2031 31.5312 55.1562 30.4219 55.9688 28.8906L60.2578 31.2812C59.0078 33.5156 57.4609 35.1797 55.6172 36.2734C53.7734 37.3672 51.6094 37.9141 49.125 37.9141C45.5625 37.9141 42.7266 36.8281 40.6172 34.6562C38.5078 32.4844 37.4531 29.5859 37.4531 25.9609C37.4531 22.4766 38.5391 19.6172 40.7109 17.3828C42.8984 15.1328 45.7031 14.0078 49.125 14.0078C52.7031 14.0078 55.4922 15.0312 57.4922 17.0781C59.4922 19.125 60.4922 21.9922 60.4922 25.6797V26.6406ZM55.2188 23.2188C55.0156 21.625 54.4062 20.4141 53.3906 19.5859C52.375 18.7422 50.9844 18.3203 49.2188 18.3203C47.5469 18.3203 46.2031 18.7266 45.1875 19.5391C44.1719 20.3516 43.4609 21.5781 43.0547 23.2188H55.2188ZM81.7734 25.8203C81.7734 23.5234 81.2344 21.7344 80.1562 20.4531C79.0938 19.1719 77.6016 18.5312 75.6797 18.5312C73.7578 18.5312 72.2422 19.1953 71.1328 20.5234C70.0391 21.8359 69.4922 23.6641 69.4922 26.0078C69.4922 28.3672 70.0234 30.1875 71.0859 31.4688C72.1484 32.75 73.6484 33.3906 75.5859 33.3906C77.4297 33.3906 78.9219 32.7031 80.0625 31.3281C81.2031 29.9375 81.7734 28.1016 81.7734 25.8203ZM81.6328 0.671875H86.7188V37H81.6328V34.1172C80.7266 35.3984 79.6641 36.3516 78.4453 36.9766C77.2422 37.6016 75.8594 37.9141 74.2969 37.9141C71.1562 37.9141 68.6797 36.8438 66.8672 34.7031C65.0703 32.5469 64.1719 29.6016 64.1719 25.8672C64.1719 22.3203 65.0938 19.4609 66.9375 17.2891C68.7812 15.1016 71.1875 14.0078 74.1562 14.0078C75.9688 14.0078 77.5156 14.3906 78.7969 15.1562C80.0938 15.9062 81.0391 16.9922 81.6328 18.4141V0.671875ZM98.6719 25.8203C98.6719 28.0859 99.25 29.9141 100.406 31.3047C101.578 32.6953 103.086 33.3906 104.93 33.3906C106.852 33.3906 108.336 32.75 109.383 31.4688C110.445 30.1875 110.977 28.3672 110.977 26.0078C110.977 23.6641 110.422 21.8359 109.312 20.5234C108.219 19.1953 106.711 18.5312 104.789 18.5312C102.867 18.5312 101.367 19.1719 100.289 20.4531C99.2109 21.7344 98.6719 23.5234 98.6719 25.8203ZM98.8359 0.671875V18.4141C99.4297 17.0078 100.375 15.9219 101.672 15.1562C102.984 14.3906 104.547 14.0078 106.359 14.0078C109.312 14.0078 111.703 15.1016 113.531 17.2891C115.375 19.4609 116.297 22.3203 116.297 25.8672C116.297 29.6016 115.391 32.5469 113.578 34.7031C111.781 36.8438 109.312 37.9141 106.172 37.9141C104.609 37.9141 103.219 37.6016 102 36.9766C100.797 36.3516 99.7422 35.3984 98.8359 34.1172V37H93.75V0.671875H98.8359ZM125.508 47.4531H120.281L126.375 35.0781L118.219 14.7812H123.844L127.922 26.2891C128.156 26.9922 128.359 27.7109 128.531 28.4453C128.719 29.1641 128.867 29.8984 128.977 30.6484C129.18 29.8672 129.664 28.625 130.43 26.9219L130.547 26.6406L136.031 14.7812H141.539L125.508 47.4531Z" fill="#B70434"/>
</svg>
